<mxfile host="Electron" agent="Mozilla/5.0 (Windows NT 10.0; Win64; x64) AppleWebKit/537.36 (KHTML, like Gecko) draw.io/24.7.17 Chrome/128.0.6613.36 Electron/32.0.1 Safari/537.36" version="24.7.17">
  <diagram name="Page-1" id="lzcPqo8F_ukYm6m2X-VP">
    <mxGraphModel dx="880" dy="524" grid="1" gridSize="10" guides="1" tooltips="1" connect="1" arrows="1" fold="1" page="1" pageScale="1" pageWidth="827" pageHeight="1169" math="0" shadow="0">
      <root>
        <mxCell id="0" />
        <mxCell id="1" parent="0" />
        <mxCell id="btTclXF5VVpqyP1IIABV-1" value="Admin" style="shape=umlActor;verticalLabelPosition=bottom;verticalAlign=top;html=1;outlineConnect=0;" parent="1" vertex="1">
          <mxGeometry x="150" y="312" width="30" height="60" as="geometry" />
        </mxCell>
        <mxCell id="btTclXF5VVpqyP1IIABV-3" value="Pelanggan" style="shape=umlActor;verticalLabelPosition=bottom;verticalAlign=top;html=1;outlineConnect=0;" parent="1" vertex="1">
          <mxGeometry x="700" y="312" width="30" height="60" as="geometry" />
        </mxCell>
        <mxCell id="btTclXF5VVpqyP1IIABV-7" value="Login" style="ellipse;whiteSpace=wrap;html=1;" parent="1" vertex="1">
          <mxGeometry x="390" y="302" width="140" height="50" as="geometry" />
        </mxCell>
        <mxCell id="btTclXF5VVpqyP1IIABV-14" value="" style="endArrow=none;html=1;rounded=0;startArrow=classic;startFill=1;exitX=1;exitY=0.5;exitDx=0;exitDy=0;" parent="1" source="btTclXF5VVpqyP1IIABV-21" edge="1">
          <mxGeometry width="50" height="50" relative="1" as="geometry">
            <mxPoint x="590" y="177" as="sourcePoint" />
            <mxPoint x="680" y="322" as="targetPoint" />
          </mxGeometry>
        </mxCell>
        <mxCell id="btTclXF5VVpqyP1IIABV-15" value="Mengelola Data Mobil" style="ellipse;whiteSpace=wrap;html=1;" parent="1" vertex="1">
          <mxGeometry x="390" y="122" width="140" height="50" as="geometry" />
        </mxCell>
        <mxCell id="btTclXF5VVpqyP1IIABV-16" value="Mengelola Data Pesanan Mobil" style="ellipse;whiteSpace=wrap;html=1;" parent="1" vertex="1">
          <mxGeometry x="390" y="182" width="140" height="50" as="geometry" />
        </mxCell>
        <mxCell id="btTclXF5VVpqyP1IIABV-17" value="Mengelola Data Pelanggan" style="ellipse;whiteSpace=wrap;html=1;" parent="1" vertex="1">
          <mxGeometry x="390" y="242" width="140" height="50" as="geometry" />
        </mxCell>
        <mxCell id="btTclXF5VVpqyP1IIABV-18" value="" style="endArrow=classic;html=1;rounded=0;entryX=0;entryY=0.5;entryDx=0;entryDy=0;" parent="1" target="btTclXF5VVpqyP1IIABV-15" edge="1">
          <mxGeometry width="50" height="50" relative="1" as="geometry">
            <mxPoint x="190" y="332" as="sourcePoint" />
            <mxPoint x="260" y="192" as="targetPoint" />
          </mxGeometry>
        </mxCell>
        <mxCell id="btTclXF5VVpqyP1IIABV-19" value="" style="endArrow=classic;html=1;rounded=0;entryX=0;entryY=0.5;entryDx=0;entryDy=0;" parent="1" target="btTclXF5VVpqyP1IIABV-16" edge="1">
          <mxGeometry width="50" height="50" relative="1" as="geometry">
            <mxPoint x="190" y="332" as="sourcePoint" />
            <mxPoint x="260" y="202" as="targetPoint" />
          </mxGeometry>
        </mxCell>
        <mxCell id="btTclXF5VVpqyP1IIABV-20" value="" style="endArrow=classic;html=1;rounded=0;entryX=0;entryY=0.5;entryDx=0;entryDy=0;" parent="1" target="btTclXF5VVpqyP1IIABV-17" edge="1">
          <mxGeometry width="50" height="50" relative="1" as="geometry">
            <mxPoint x="190" y="332" as="sourcePoint" />
            <mxPoint x="270" y="252" as="targetPoint" />
          </mxGeometry>
        </mxCell>
        <mxCell id="btTclXF5VVpqyP1IIABV-21" value="Booking Mobil" style="ellipse;whiteSpace=wrap;html=1;" parent="1" vertex="1">
          <mxGeometry x="390" y="420" width="140" height="50" as="geometry" />
        </mxCell>
        <mxCell id="btTclXF5VVpqyP1IIABV-27" value="Pembayaran" style="ellipse;whiteSpace=wrap;html=1;" parent="1" vertex="1">
          <mxGeometry x="390" y="480" width="140" height="50" as="geometry" />
        </mxCell>
        <mxCell id="btTclXF5VVpqyP1IIABV-28" value="" style="endArrow=classic;html=1;rounded=0;entryX=1;entryY=0.5;entryDx=0;entryDy=0;endFill=1;" parent="1" target="btTclXF5VVpqyP1IIABV-27" edge="1">
          <mxGeometry width="50" height="50" relative="1" as="geometry">
            <mxPoint x="680" y="322" as="sourcePoint" />
            <mxPoint x="560" y="272" as="targetPoint" />
          </mxGeometry>
        </mxCell>
        <mxCell id="btTclXF5VVpqyP1IIABV-36" value="Penjemputan Mobil&amp;nbsp;&lt;div&gt;ke Lokasi&lt;/div&gt;" style="ellipse;whiteSpace=wrap;html=1;" parent="1" vertex="1">
          <mxGeometry x="390" y="540" width="140" height="50" as="geometry" />
        </mxCell>
        <mxCell id="btTclXF5VVpqyP1IIABV-37" value="Pengembalian Mobil" style="ellipse;whiteSpace=wrap;html=1;" parent="1" vertex="1">
          <mxGeometry x="390" y="600" width="140" height="50" as="geometry" />
        </mxCell>
        <mxCell id="btTclXF5VVpqyP1IIABV-40" value="" style="endArrow=classic;html=1;rounded=0;entryX=1;entryY=0.5;entryDx=0;entryDy=0;endFill=1;" parent="1" target="btTclXF5VVpqyP1IIABV-36" edge="1">
          <mxGeometry width="50" height="50" relative="1" as="geometry">
            <mxPoint x="680" y="322" as="sourcePoint" />
            <mxPoint x="600" y="302" as="targetPoint" />
          </mxGeometry>
        </mxCell>
        <mxCell id="btTclXF5VVpqyP1IIABV-41" value="" style="endArrow=classic;html=1;rounded=0;entryX=0.994;entryY=0.316;entryDx=0;entryDy=0;endFill=1;entryPerimeter=0;" parent="1" target="btTclXF5VVpqyP1IIABV-37" edge="1">
          <mxGeometry width="50" height="50" relative="1" as="geometry">
            <mxPoint x="680" y="322" as="sourcePoint" />
            <mxPoint x="490" y="462" as="targetPoint" />
          </mxGeometry>
        </mxCell>
        <mxCell id="nKnBXcsVQIlAc5ingZsk-1" value="" style="endArrow=classic;html=1;rounded=0;entryX=0;entryY=0.5;entryDx=0;entryDy=0;" parent="1" target="btTclXF5VVpqyP1IIABV-7" edge="1">
          <mxGeometry width="50" height="50" relative="1" as="geometry">
            <mxPoint x="190" y="332" as="sourcePoint" />
            <mxPoint x="380" y="122" as="targetPoint" />
          </mxGeometry>
        </mxCell>
        <mxCell id="nKnBXcsVQIlAc5ingZsk-2" value="" style="endArrow=none;html=1;rounded=0;startArrow=classic;startFill=1;exitX=1;exitY=0.5;exitDx=0;exitDy=0;" parent="1" source="btTclXF5VVpqyP1IIABV-7" edge="1">
          <mxGeometry width="50" height="50" relative="1" as="geometry">
            <mxPoint x="480" y="119" as="sourcePoint" />
            <mxPoint x="680" y="322" as="targetPoint" />
          </mxGeometry>
        </mxCell>
        <mxCell id="XDI_oep2auRX-oKq7xni-1" value="Mengelola Data Role" style="ellipse;whiteSpace=wrap;html=1;" parent="1" vertex="1">
          <mxGeometry x="390" y="60" width="140" height="50" as="geometry" />
        </mxCell>
        <mxCell id="XDI_oep2auRX-oKq7xni-2" value="" style="endArrow=classic;html=1;rounded=0;entryX=0.011;entryY=0.576;entryDx=0;entryDy=0;entryPerimeter=0;" parent="1" target="XDI_oep2auRX-oKq7xni-1" edge="1">
          <mxGeometry width="50" height="50" relative="1" as="geometry">
            <mxPoint x="190" y="332" as="sourcePoint" />
            <mxPoint x="390" y="92" as="targetPoint" />
          </mxGeometry>
        </mxCell>
        <mxCell id="XDI_oep2auRX-oKq7xni-4" value="Lupa Password" style="ellipse;whiteSpace=wrap;html=1;" parent="1" vertex="1">
          <mxGeometry x="390" y="360" width="140" height="50" as="geometry" />
        </mxCell>
        <mxCell id="XDI_oep2auRX-oKq7xni-6" value="" style="endArrow=classic;html=1;rounded=0;entryX=-0.002;entryY=0.418;entryDx=0;entryDy=0;entryPerimeter=0;" parent="1" target="XDI_oep2auRX-oKq7xni-4" edge="1">
          <mxGeometry width="50" height="50" relative="1" as="geometry">
            <mxPoint x="190" y="332" as="sourcePoint" />
            <mxPoint x="390" y="372" as="targetPoint" />
          </mxGeometry>
        </mxCell>
        <mxCell id="XDI_oep2auRX-oKq7xni-7" value="" style="endArrow=none;html=1;rounded=0;startArrow=classic;startFill=1;exitX=1;exitY=0.5;exitDx=0;exitDy=0;" parent="1" source="XDI_oep2auRX-oKq7xni-4" edge="1">
          <mxGeometry width="50" height="50" relative="1" as="geometry">
            <mxPoint x="520" y="362" as="sourcePoint" />
            <mxPoint x="680" y="322" as="targetPoint" />
          </mxGeometry>
        </mxCell>
      </root>
    </mxGraphModel>
  </diagram>
</mxfile>
